<svg xmlns="http://www.w3.org/2000/svg" width="128" height="128" viewBox="0 0 128 128">
  <g id="facility-2" transform="translate(6180 -5769)">
    <g id="stone" transform="translate(-6176.946 5734.057)">
      <path id="Path_29" data-name="Path 29" d="M104,62.4c0-7.144-6.5-15.255-16.375-20.8a10.383,10.383,0,0,0,5.7-9.6c0-10.824-14.775-24-32-24s-32,13.175-32,24a10.383,10.383,0,0,0,5.7,9.6c-9.864,5.544-16.375,13.655-16.375,20.8a10.918,10.918,0,0,0,4.584,9.176C13.816,77.277,8,84.581,8,91.573c0,15.463,24.583,17.543,49.062,17.7a63.659,63.659,0,0,1-1.064-8.8,10.375,10.375,0,0,1,.056-1.864c-35.463-.48-37.383-5.92-37.383-7.04,0-3.464,6.664-10.5,19.039-15.2,7.256.96,15.623.96,23.623.96s16.375,0,23.623-.96a41.49,41.49,0,0,1,4.32,1.864c.216-.32.48-.64.744-.96a14.454,14.454,0,0,1,10.136-5.224c-.216-.16-.48-.32-.744-.48A10.918,10.918,0,0,0,104,62.4ZM61.334,18.664C73.653,18.664,82.669,28,82.669,32v.056c-1.176,1.76-8.376,2.616-21.335,2.616S41.175,33.815,40,32C40,28,49.014,18.664,61.334,18.664Zm0,48c-27.839,0-32-2.664-32-4.264,0-5.064,13.5-17.063,32-17.063s32,12,32,17.063c0,1.6-4.16,4.264-32,4.264Z" transform="translate(-11.054 26.946)" fill="#fff"/>
      <path id="Path_30" data-name="Path 30" d="M83.474,31.462A4.1,4.1,0,0,0,80.41,30.3a43.967,43.967,0,0,0-18.383,4.872,44.948,44.948,0,0,0-8.944-16.455,4.133,4.133,0,0,0-6.176,0,44.831,44.831,0,0,0-8.944,16.455A43.934,43.934,0,0,0,19.58,30.3a4.037,4.037,0,0,0-3.064,1.16,3.988,3.988,0,0,0-1.176,3.064c1.272,22.255,12.432,34.071,34.5,36.143.128,0,.56-.008.688-.016,21.7-2.056,32.863-13.871,34.127-36.127a4.024,4.024,0,0,0-1.184-3.064Z" transform="translate(40.283 92.272)" fill="#fff" opacity="0.5"/>
    </g>
    <rect id="Rectangle_229" data-name="Rectangle 229" width="128" height="128" transform="translate(-6180 5769)" fill="none"/>
  </g>
</svg>
