<svg xmlns="http://www.w3.org/2000/svg" width="128" height="128" viewBox="0 0 128 128">
  <g id="facility-5" transform="translate(5736 -5769)">
    <g id="Group_760" data-name="Group 760" transform="translate(-5804.635 5537.029)">
      <path id="Path_40" data-name="Path 40" d="M20.524,12.427a5.264,5.264,0,0,0-5.191,5.336V99.637a5.193,5.193,0,1,0,10.383,0V17.755a5.262,5.262,0,0,0-5.191-5.328Z" transform="translate(112.115 254.998)" fill="#fff" opacity="0.5"/>
      <g id="Group_50" data-name="Group 50" transform="translate(101.499 231.971)">
        <path id="Path_41" data-name="Path 41" d="M29.9,9.021a3.8,3.8,0,0,0-5.191,0c-.428.392-10.375,9.679-10.375,21.647s9.955,21.255,10.375,21.647a3.792,3.792,0,0,0,5.184,0c.428-.392,10.375-9.687,10.375-21.647C40.282,18.7,30.327,9.4,29.9,9.021Z" transform="translate(3.833 -7.995)" fill="#fff"/>
        <path id="Path_42" data-name="Path 42" d="M49.379,20.467A3.944,3.944,0,0,0,45.7,16.691c-.576-.04-14.111-.688-22.4,7.831s-7.643,22.422-7.62,23.014a3.944,3.944,0,0,0,3.674,3.776c.086.008.467.024,1.082.024,3.463,0,14.282-.608,21.318-7.839,8.3-8.527,7.651-22.438,7.62-23.03Z" transform="translate(12.87 52.69)" fill="#fff"/>
        <path id="Path_43" data-name="Path 43" d="M38.1,24.522C29.814,16,16.264,16.651,15.7,16.691a3.944,3.944,0,0,0-3.674,3.776c-.031.592-.677,14.5,7.62,23.022C26.678,50.72,37.5,51.328,40.96,51.328c.615,0,1-.016,1.082-.024a3.944,3.944,0,0,0,3.674-3.776C45.746,46.945,46.384,33.034,38.1,24.522Z" transform="translate(-11.999 52.69)" fill="#fff"/>
        <path id="Path_44" data-name="Path 44" d="M49.379,16.226A3.944,3.944,0,0,0,45.7,12.45c-.576-.04-14.111-.688-22.4,7.831s-7.643,22.43-7.62,23.022a3.944,3.944,0,0,0,3.674,3.776c.086.008.459.024,1.066.024,3.448,0,14.282-.608,21.326-7.847,8.3-8.527,7.659-22.438,7.627-23.03Z" transform="translate(12.87 23.006)" fill="#fff"/>
        <path id="Path_45" data-name="Path 45" d="M38.1,20.281c-8.281-8.519-21.831-7.871-22.4-7.831a3.944,3.944,0,0,0-3.674,3.776c-.031.592-.677,14.5,7.62,23.022,7.044,7.24,17.885,7.847,21.326,7.847.607,0,.981-.016,1.066-.024A3.944,3.944,0,0,0,45.707,43.3c.039-.584.677-14.495-7.612-23.014Z" transform="translate(-11.999 23.006)" fill="#fff"/>
      </g>
    </g>
    <rect id="Rectangle_229" data-name="Rectangle 229" width="128" height="128" transform="translate(-5736 5769)" fill="none"/>
  </g>
</svg>
