<svg xmlns="http://www.w3.org/2000/svg" width="128" height="128" viewBox="0 0 128 128">
  <g id="facility-3" transform="translate(6032 -5769)">
    <g id="Group_761" data-name="Group 761" transform="translate(-6114 5533)">
      <g id="Group_49" data-name="Group 49" transform="translate(82 316)">
        <ellipse id="Ellipse_29" data-name="Ellipse 29" cx="10.664" cy="10.664" rx="10.664" ry="10.664" transform="translate(10.672 0)" fill="#fff"/>
        <path id="Path_34" data-name="Path 34" d="M36,21.333H22.664A14.685,14.685,0,0,0,8,36v2.664a4,4,0,0,0,4,4H46.664a4,4,0,0,0,4-4V36A14.685,14.685,0,0,0,36,21.333Z" transform="translate(-8 5.331)" fill="#fff"/>
        <ellipse id="Ellipse_30" data-name="Ellipse 30" cx="10.664" cy="10.664" rx="10.664" ry="10.664" transform="translate(96 0)" fill="#fff"/>
        <path id="Path_35" data-name="Path 35" d="M46.667,21.333H33.331A14.678,14.678,0,0,0,18.667,36v2.672a4,4,0,0,0,4,4H57.331a4,4,0,0,0,4-4V36A14.685,14.685,0,0,0,46.667,21.333Z" transform="translate(66.669 5.331)" fill="#fff"/>
      </g>
      <path id="Path_36" data-name="Path 36" d="M111.331,8h-88A14.657,14.657,0,0,0,8.667,22.664v40A14.657,14.657,0,0,0,23.331,77.328H45.995V70.664A14.657,14.657,0,0,1,60.659,56H73.995A14.657,14.657,0,0,1,88.659,70.664v6.664h22.672a14.657,14.657,0,0,0,14.664-14.664v-40A14.657,14.657,0,0,0,111.331,8Zm-44,42.664A10.664,10.664,0,1,1,77.995,40,10.676,10.676,0,0,1,67.331,50.664Z" transform="translate(78.669 228)" fill="#fff" opacity="0.5"/>
    </g>
    <rect id="Rectangle_229" data-name="Rectangle 229" width="128" height="128" transform="translate(-6032 5769)" fill="none"/>
  </g>
</svg>
