<svg xmlns="http://www.w3.org/2000/svg" width="128" height="128" viewBox="0 0 128 128">
  <g id="facility-4" transform="translate(5884 -5769)">
    <g id="_002-flower" data-name="002-flower" transform="translate(-5892 5775.001)">
      <path id="Path_32" data-name="Path 32" d="M134.024,73.438a61.54,61.54,0,0,0-21.7-11.792c4.568-7.016,7.4-15.664,8.352-25.912a5.357,5.357,0,0,0-1.536-4.264,5.3,5.3,0,0,0-4.256-1.544c-10.072.9-18.632,3.48-25.632,7.6-1.76-8.808-6.16-17.5-13.192-25.744a5.507,5.507,0,0,0-8.112,0C60.9,20.022,56.5,28.718,54.752,37.526c-7-4.12-15.56-6.7-25.632-7.6a5.334,5.334,0,0,0-5.792,5.808c.952,10.248,3.784,18.9,8.352,25.912a61.54,61.54,0,0,0-21.7,11.792,5.34,5.34,0,0,0-.008,8.288C21.064,90.75,32.5,95.262,43.936,95.262A45.875,45.875,0,0,0,60.6,92.014a65.292,65.292,0,0,0,8.336,12.56,4.008,4.008,0,0,0,6.128,0A64.922,64.922,0,0,0,83.4,92.014a45.875,45.875,0,0,0,16.664,3.248c11.432,0,22.872-4.512,33.968-13.536a5.34,5.34,0,0,0-.008-8.288ZM83.736,69.862a49.465,49.465,0,0,0,6.208-19.7c4.864-4.2,11.224-7.152,19.144-8.672-3.016,15.008-11.312,24.2-25.352,28.376ZM72,24.022C81.816,38.6,81.816,54.11,72,68.678,62.184,54.11,62.184,38.6,72,24.022ZM54.056,50.158a49.465,49.465,0,0,0,6.208,19.7C46.224,65.686,37.92,56.494,34.912,41.494,42.832,43.006,49.192,45.958,54.056,50.158ZM22.368,77.59a41.522,41.522,0,0,1,17.448-6.712A49.4,49.4,0,0,0,59.6,80.758C47.168,86.67,34.872,85.7,22.368,77.59ZM84.4,80.758a49.474,49.474,0,0,0,19.776-9.88,41.522,41.522,0,0,1,17.448,6.712C109.128,85.694,96.832,86.662,84.4,80.758Z" fill="#fff"/>
    </g>
    <rect id="Rectangle_229" data-name="Rectangle 229" width="128" height="128" transform="translate(-5884 5769)" fill="none"/>
  </g>
</svg>
