<svg xmlns="http://www.w3.org/2000/svg" width="53.415" height="21.135" viewBox="0 0 53.415 21.135">
  <g id="Group_752" data-name="Group 752" transform="translate(-915 -971)">
    <path id="chevron-left" d="M17.909,53.919l.335-.335a.569.569,0,0,0,0-.8L8.982,43.518l9.262-9.262a.569.569,0,0,0,0-.8l-.335-.335a.569.569,0,0,0-.8,0l-10,10a.569.569,0,0,0,0,.8l10,10a.568.568,0,0,0,.8,0Z" transform="translate(908.06 938.049)" fill="#fff"/>
    <rect id="Rectangle_21" data-name="Rectangle 21" width="51.381" height="1.713" rx="0.856" transform="translate(917.034 980.711)" fill="#fff"/>
  </g>
</svg>
