<svg xmlns="http://www.w3.org/2000/svg" width="124" height="124" viewBox="0 0 124 124">
  <g id="room-facility-5" transform="translate(0.481)">
    <g id="Group_736" data-name="Group 736" transform="translate(6.249 1.002)">
      <g id="Group_731" data-name="Group 731" opacity="0.5">
        <path id="Path_4406" data-name="Path 4406" d="M68.882,29.488H15.789a3.793,3.793,0,0,1-3.064-6.022l7.084-9.739A13.93,13.93,0,0,1,31.049,8H53.614a13.919,13.919,0,0,1,11.24,5.727l7.084,9.739a3.793,3.793,0,0,1-3.057,6.022Z" transform="translate(13.286 -8)" fill="#505f6b"/>
        <path id="Path_4407" data-name="Path 4407" d="M37.742,13.792h3.792a3.82,3.82,0,0,0-.963-2.526A3.779,3.779,0,0,0,37.742,10H12.463a3.8,3.8,0,0,0-2.677,6.477L32.539,39.232a3.775,3.775,0,0,0,2.677,1.107,3.721,3.721,0,0,0,1.267-.2c.053,0,.053-.053.1-.053L32.79,19.754a5.3,5.3,0,0,1-.1-.91,5.059,5.059,0,0,1,5.051-5.052Z" transform="translate(-8.667 5.168)" fill="#505f6b"/>
      </g>
      <g id="Group_730" data-name="Group 730" transform="translate(20.224 15.177)">
        <path id="Path_4404" data-name="Path 4404" d="M42.42,56.849a5.064,5.064,0,0,1-5.006-4.339L33.6,25.8a5.082,5.082,0,0,0-5.006-4.346H24.725a5.059,5.059,0,0,1,0-10.118h3.868A15.243,15.243,0,0,1,43.611,24.355l3.815,26.714a5.052,5.052,0,0,1-4.293,5.719,3.772,3.772,0,0,1-.713.061Z" transform="translate(43.537 -1.236)" fill="#505f6b"/>
        <path id="Path_4405" data-name="Path 4405" d="M77.069,28.111H16.392a5.055,5.055,0,1,1,0-10.111H77.069a5.055,5.055,0,1,1,0,10.111Z" transform="translate(-11.333 42.675)" fill="#505f6b"/>
        <g id="Group_717" data-name="Group 717" transform="translate(0)">
          <path id="Path_4408" data-name="Path 4408" d="M66.959,79.524a5.7,5.7,0,0,1-.941-.083,5.052,5.052,0,0,1-4.035-5.9L72.01,20.1l-50.567.015L31.47,73.539a5.055,5.055,0,1,1-9.936,1.866L11.507,21.962A10.093,10.093,0,0,1,21.443,10H72.01a10.122,10.122,0,0,1,10.11,10.111,10.284,10.284,0,0,1-.167,1.82L71.919,75.405a5.048,5.048,0,0,1-4.96,4.119Z" transform="translate(-11.333 -10.001)" fill="#505f6b"/>
          <path id="Path_4409" data-name="Path 4409" d="M72.01,63.515H21.443A10.122,10.122,0,0,1,11.333,53.4a9.178,9.178,0,0,1,.47-3.026L20.5,21.6a5.056,5.056,0,1,1,9.678,2.928L21.428,53.45,72.01,53.4,63.28,24.521a5.056,5.056,0,1,1,9.678-2.928L81.7,50.514a8.933,8.933,0,0,1,.417,2.882A10.119,10.119,0,0,1,72.01,63.515Z" transform="translate(-11.333 42.666)" fill="#505f6b"/>
          <path id="Path_4410" data-name="Path 4410" d="M26.278,79.394a5.058,5.058,0,0,1-5.013-4.445L13.679,13c-.341-2.776,9.7-4,10.035-1.229L31.3,73.721a5.055,5.055,0,0,1-4.407,5.636,4.242,4.242,0,0,1-.614.038Z" transform="translate(4.061 -8.612)" fill="#505f6b"/>
          <path id="Path_4411" data-name="Path 4411" d="M21.059,79.392a5.571,5.571,0,0,1-.614-.038,5.055,5.055,0,0,1-4.407-5.636l7.585-61.946C23.957,9,34,10.234,33.658,13L26.073,74.948a5.052,5.052,0,0,1-5.013,4.445Z" transform="translate(19.397 -8.61)" fill="#505f6b"/>
          <path id="Path_4412" data-name="Path 4412" d="M18.732,63.515a5.237,5.237,0,0,1-1.069-.114,5.06,5.06,0,0,1-3.883-6.007L21.364,22a5.058,5.058,0,1,1,9.89,2.124l-7.585,35.4a5.059,5.059,0,0,1-4.938,4Z" transform="translate(4.03 42.665)" fill="#505f6b"/>
          <path id="Path_4413" data-name="Path 4413" d="M28.635,63.517a5.053,5.053,0,0,1-4.938-4l-7.585-35.4A5.058,5.058,0,1,1,26,22l7.585,35.4A5.06,5.06,0,0,1,29.7,63.4a5.235,5.235,0,0,1-1.069.114Z" transform="translate(19.398 42.664)" fill="#505f6b"/>
        </g>
      </g>
    </g>
    <rect id="Rectangle_215" data-name="Rectangle 215" width="124" height="124" transform="translate(-0.481 0)" fill="none"/>
  </g>
</svg>
