<svg xmlns="http://www.w3.org/2000/svg" width="124" height="124" viewBox="0 0 124 124">
  <g id="room-facility-3" transform="translate(0.481)">
    <g id="Group_738" data-name="Group 738" transform="translate(10.347 1.134)">
      <path id="Path_4394" data-name="Path 4394" d="M32.086,54.174A22.753,22.753,0,1,1,54.839,31.42,22.781,22.781,0,0,1,32.086,54.174Zm0-35.4A12.643,12.643,0,1,0,44.729,31.42,12.659,12.659,0,0,0,32.086,18.777Z" transform="translate(-9.333 -3.601)" fill="#505f6b" opacity="0.5"/>
      <g id="Group_715" data-name="Group 715" transform="translate(20.234)">
        <path id="Path_4395" data-name="Path 4395" d="M62.558,11.333H22.111A10.122,10.122,0,0,0,12,21.443V92.237A15.184,15.184,0,0,0,27.17,107.406H57.507A15.184,15.184,0,0,0,72.675,92.237V21.451A10.135,10.135,0,0,0,62.558,11.333Zm0,10.118V54.686a26.164,26.164,0,0,0-2.207,2.146c-1.661,1.805-2.4,2.541-4.111,2.541-1.76,0-2.51-.743-4.179-2.571-1.942-2.116-4.6-5.013-9.723-5.013-5.165,0-7.835,2.9-9.776,5.029-1.661,1.82-2.4,2.556-4.126,2.556-1.752,0-2.5-.743-4.171-2.564a27.144,27.144,0,0,0-2.146-2.1V21.451Z" transform="translate(-12.001 13.953)" fill="#505f6b"/>
        <path id="Path_4396" data-name="Path 4396" d="M21.563,87.643a4.039,4.039,0,0,1-.6-.038,5.057,5.057,0,0,1-4.429-5.613l6.7-56.982A15.259,15.259,0,0,1,35.707,11.836L57.345,8.074a5.058,5.058,0,0,1,1.737,9.966L37.444,21.81a5.078,5.078,0,0,0-4.156,4.384l-6.7,56.982a5.062,5.062,0,0,1-5.021,4.467Z" transform="translate(17.618 -7.999)" fill="#505f6b"/>
      </g>
    </g>
    <rect id="Rectangle_217" data-name="Rectangle 217" width="124" height="124" transform="translate(-0.481 0)" fill="none"/>
  </g>
</svg>
