<svg id="room-facility-2" xmlns="http://www.w3.org/2000/svg" width="121.361" height="123.971" viewBox="0 0 121.361 123.971">
  <g id="Group_740" data-name="Group 740" transform="translate(0 0.998)">
    <path id="Path_4433" data-name="Path 4433" d="M59.9,110.475A50.571,50.571,0,1,1,110.472,59.9,50.629,50.629,0,0,1,59.9,110.475Zm0-91.023A40.452,40.452,0,1,0,100.354,59.9,40.5,40.5,0,0,0,59.9,19.452Z" transform="translate(0.775 0.781)" fill="#505f6b"/>
    <path id="Path_4434" data-name="Path 4434" d="M13.05,38.341a5.051,5.051,0,0,1-4.293-7.707A67.382,67.382,0,0,1,30.632,8.751a5.057,5.057,0,0,1,5.31,8.609A57.127,57.127,0,0,0,17.366,35.937,5.078,5.078,0,0,1,13.05,38.341Z" transform="translate(-8 -7.999)" fill="#505f6b"/>
    <path id="Path_4435" data-name="Path 4435" d="M25.061,50.342a5.057,5.057,0,0,1-2.662-9.36A57.127,57.127,0,0,0,40.974,22.406a5.052,5.052,0,1,1,8.6,5.3A67.382,67.382,0,0,1,27.7,49.591a4.982,4.982,0,0,1-2.64.751Z" transform="translate(71.016 71.022)" fill="#505f6b"/>
    <path id="Path_4436" data-name="Path 4436" d="M33.276,50.342a5.046,5.046,0,0,1-2.647-.751A67.382,67.382,0,0,1,8.754,27.708a5.052,5.052,0,1,1,8.6-5.3A57.347,57.347,0,0,0,35.931,40.982a5.057,5.057,0,0,1-2.655,9.36Z" transform="translate(-7.996 71.022)" fill="#505f6b"/>
    <path id="Path_4437" data-name="Path 4437" d="M45.287,38.343a5.056,5.056,0,0,1-4.308-2.4A57.347,57.347,0,0,0,22.4,17.362a5.057,5.057,0,0,1,5.31-8.609A67.383,67.383,0,0,1,49.587,30.636a5.051,5.051,0,0,1-4.3,7.707Z" transform="translate(71.021 -8)" fill="#505f6b"/>
    <g id="Group_722" data-name="Group 722" transform="translate(25.279 25.286)" opacity="0.5">
      <ellipse id="Ellipse_42" data-name="Ellipse 42" cx="16.18" cy="16.18" rx="16.18" ry="16.18" transform="translate(18.192 18.688)" fill="#505f6b"/>
      <path id="Path_4438" data-name="Path 4438" d="M19.293,36.326A3.794,3.794,0,0,1,15.5,32.534V18.994a7.669,7.669,0,0,1,7.661-7.661h5.8a3.793,3.793,0,0,1,0,7.585h-5.8l-.076,13.608A3.8,3.8,0,0,1,19.293,36.326Z" transform="translate(16.107 -11.333)" fill="#505f6b"/>
      <path id="Path_4439" data-name="Path 4439" d="M38.566,31.49A3.794,3.794,0,0,1,34.773,27.7V23.161l-13.608-.076a3.793,3.793,0,0,1,0-7.585H34.7a7.669,7.669,0,0,1,7.661,7.661V27.7A3.805,3.805,0,0,1,38.566,31.49Z" transform="translate(28.441 16.108)" fill="#505f6b"/>
      <path id="Path_4440" data-name="Path 4440" d="M22.72,42.359H18.185a3.793,3.793,0,0,1,0-7.585H22.72L22.8,21.166a3.793,3.793,0,1,1,7.585,0v13.54A7.667,7.667,0,0,1,22.72,42.359Z" transform="translate(8.811 28.442)" fill="#505f6b"/>
      <path id="Path_4441" data-name="Path 4441" d="M32.533,30.382H18.994a7.669,7.669,0,0,1-7.661-7.661V18.185a3.793,3.793,0,1,1,7.585,0v4.536l13.608.076a3.793,3.793,0,0,1,.008,7.585Z" transform="translate(-11.333 8.811)" fill="#505f6b"/>
      <path id="Path_4442" data-name="Path 4442" d="M27.258,38.378a3.809,3.809,0,0,1-2.685-1.107L15,27.7a7.678,7.678,0,0,1,0-10.832l4.1-4.1a3.792,3.792,0,1,1,5.363,5.363l-4.1,4.1L29.936,31.9a3.8,3.8,0,0,1,0,5.363A3.755,3.755,0,0,1,27.258,38.378Z" transform="translate(-1.902 -9.227)" fill="#505f6b"/>
      <path id="Path_4443" data-name="Path 4443" d="M20.618,30.991a3.789,3.789,0,0,1-2.685-6.47l9.572-9.573a7.835,7.835,0,0,1,10.831,0l3.208,3.209a3.792,3.792,0,1,1-5.363,5.363L32.974,20.31,23.3,29.883a3.809,3.809,0,0,1-2.685,1.107Z" transform="translate(24.824 -1.84)" fill="#505f6b"/>
      <path id="Path_4444" data-name="Path 4444" d="M26.982,42.648a3.789,3.789,0,0,1-2.685-6.47l3.208-3.209L17.933,23.3A3.792,3.792,0,0,1,23.3,17.935l9.572,9.573a7.678,7.678,0,0,1,0,10.832l-3.216,3.209a3.773,3.773,0,0,1-2.67,1.1Z" transform="translate(24.824 24.838)" fill="#505f6b"/>
      <path id="Path_4445" data-name="Path 4445" d="M21.5,35.115a7.6,7.6,0,0,1-5.416-2.245L12.88,29.661A3.792,3.792,0,0,1,18.243,24.3l3.208,3.209,9.671-9.573A3.792,3.792,0,0,1,36.485,23.3l-9.572,9.573A7.6,7.6,0,0,1,21.5,35.115Z" transform="translate(-8.45 24.832)" fill="#505f6b"/>
    </g>
  </g>
  <rect id="Rectangle_210" data-name="Rectangle 210" width="115.706" height="123.971" transform="translate(0.628 0)" fill="none"/>
</svg>
