<svg id="room-facility-4" xmlns="http://www.w3.org/2000/svg" width="123.971" height="121.364" viewBox="0 0 123.971 121.364">
  <g id="Group_739" data-name="Group 739" transform="translate(0.982 0)">
    <g id="Group_721" data-name="Group 721" transform="translate(0 25.284)" opacity="0.5">
      <path id="Path_4428" data-name="Path 4428" d="M29.488,31.563h-17.7A3.794,3.794,0,0,1,8,27.77V15.126a3.794,3.794,0,0,1,3.793-3.793h17.7a3.794,3.794,0,0,1,3.793,3.793V27.77A3.794,3.794,0,0,1,29.488,31.563Z" transform="translate(-8 -11.333)" fill="#505f6b"/>
      <path id="Path_4429" data-name="Path 4429" d="M29.488,38.23h-17.7A3.794,3.794,0,0,1,8,34.437V21.793A3.794,3.794,0,0,1,11.793,18h17.7a3.794,3.794,0,0,1,3.793,3.793V34.437A3.794,3.794,0,0,1,29.488,38.23Z" transform="translate(-8 32.571)" fill="#505f6b"/>
      <path id="Path_4430" data-name="Path 4430" d="M61.407,34.792H54.117a15.018,15.018,0,0,0-2.093-5.112l5.135-5.135a3.159,3.159,0,1,0-4.468-4.468l-5.135,5.135a15.1,15.1,0,0,0-5.112-1.995V15.829a3.163,3.163,0,1,0-6.326,0v7.388a15.038,15.038,0,0,0-5.112,1.995l-5.135-5.135A3.159,3.159,0,1,0,21.4,24.545l5.135,5.135a15.236,15.236,0,0,0-2.093,5.112H17.155a3.163,3.163,0,0,0,.008,6.326h7.289a15.119,15.119,0,0,0,2.093,5.12l-5.135,5.135a3.162,3.162,0,0,0,4.475,4.468l5.1-5.1a15.252,15.252,0,0,0,5.15,2.147v7.2a3.163,3.163,0,1,0,6.326,0v-7.2a15.381,15.381,0,0,0,5.15-2.147l5.1,5.1A3.162,3.162,0,1,0,57.2,51.374l-5.135-5.135a15.21,15.21,0,0,0,2.093-5.12h7.289a3.166,3.166,0,0,0,3.163-3.163,3.2,3.2,0,0,0-3.2-3.163Z" transform="translate(31.51 -2.555)" fill="#505f6b"/>
    </g>
    <path id="Path_4431" data-name="Path 4431" d="M107.773,8H23.07a13.917,13.917,0,0,0-13.9,13.9v6.319H21.811a8.862,8.862,0,0,1,8.852,8.852V49.719a8.862,8.862,0,0,1-8.852,8.852H9.167V78.8H21.811a8.862,8.862,0,0,1,8.852,8.852V100.3a8.862,8.862,0,0,1-8.852,8.852H9.167v6.319a13.915,13.915,0,0,0,13.9,13.9h84.7a13.917,13.917,0,0,0,13.9-13.9V21.9A13.917,13.917,0,0,0,107.773,8ZM92.565,90.141a30.363,30.363,0,1,1,8.882-21.459A30.123,30.123,0,0,1,92.565,90.141Z" transform="translate(-0.315 -8)" fill="#505f6b"/>
  </g>
  <rect id="Rectangle_211" data-name="Rectangle 211" width="123.971" height="119.839" transform="translate(0 0.268)" fill="none"/>
</svg>
